<svg width="30" height="38" viewBox="0 0 30 38" fill="none" xmlns="http://www.w3.org/2000/svg">
<g id="badge">
<g id="Group">
<g id="Group_2">
<path id="Vector" d="M29.6157 17.1991L29.1546 16.5616C28.6473 15.8619 28.6396 14.9134 29.1392 14.206L29.5927 13.5607C30.2845 12.5733 29.9616 11.1895 28.9086 10.6142L28.2168 10.241C27.4635 9.82893 27.0485 8.98151 27.1945 8.12632L27.3252 7.3411C27.525 6.14383 26.6411 5.03985 25.442 4.99321L24.658 4.96211C23.8048 4.92324 23.0669 4.34015 22.8286 3.50828L22.6134 2.74638C22.2829 1.58021 21.0146 0.973803 19.9078 1.45582L19.1853 1.7668C18.4012 2.10888 17.4866 1.90674 16.9101 1.26146L16.3874 0.670598C15.588 -0.231241 14.1814 -0.223466 13.3974 0.693922L12.8824 1.29256C12.3213 1.94561 11.4066 2.1633 10.6149 1.83677L9.89237 1.53357C8.78552 1.0671 7.52495 1.69683 7.2098 2.863L7.00227 3.6249C6.77936 4.45677 6.04915 5.0554 5.19596 5.10982L4.41194 5.15647C3.21286 5.22644 2.34429 6.34597 2.5672 7.53546L2.70555 8.31291C2.85928 9.1681 2.45959 10.0233 1.714 10.4431L1.02991 10.8318C-0.0231286 11.4227 -0.322899 12.8066 0.384252 13.7861L0.845438 14.4236C1.35274 15.1233 1.36043 16.0718 0.860811 16.7793L0.407312 17.4246C-0.284467 18.412 0.0383628 19.7958 1.0914 20.3711L1.78318 20.7443C2.53645 21.1563 2.95152 22.0038 2.80548 22.859L2.67481 23.6442C2.47496 24.8414 3.3589 25.9454 4.55798 25.9921L5.342 26.0232C6.19519 26.062 6.93309 26.6451 7.17137 27.477L7.38659 28.2389C7.71711 29.4051 8.98537 30.0115 10.0922 29.5295L10.8147 29.2185C11.5988 28.8764 12.5134 29.0785 13.0899 29.7238L13.6126 30.3147C14.412 31.2165 15.8186 31.2087 16.6026 30.2914L17.1176 29.6927C17.6787 29.0397 18.5934 28.822 19.3851 29.1485L20.1076 29.4517C21.2145 29.9182 22.4751 29.2884 22.7902 28.1223L22.9977 27.3604C23.2206 26.5285 23.9508 25.9299 24.804 25.8754L25.5881 25.8288C26.7871 25.7588 27.6557 24.6393 27.4328 23.4498L27.2944 22.6724C27.1407 21.8172 27.5404 20.962 28.286 20.5422L28.9701 20.1534C30.0231 19.5704 30.3229 18.1787 29.6157 17.1991ZM14.9885 25.5956C9.4773 25.5956 4.99611 21.063 4.99611 15.4887C4.99611 9.91445 9.4773 5.38193 14.9885 5.38193C20.4996 5.38193 24.9808 9.91445 24.9808 15.4887C24.9808 21.063 20.4996 25.5956 14.9885 25.5956Z" fill="#FFCB00"/>
<path id="Vector_2" d="M25.4268 28.0756L25.0809 28.0989L24.9118 28.7209C24.4122 30.5635 22.7443 31.8462 20.8611 31.8462C20.3077 31.8462 19.7696 31.7374 19.2623 31.5275L18.6781 31.2787L18.4937 31.4964L21.3453 36.7442C21.5144 37.0474 21.8065 37.2651 22.1447 37.3272L25.5805 37.9725C26.1186 38.0736 26.6566 37.7782 26.8642 37.2573L28.1632 33.9764C28.2939 33.6499 28.2708 33.2845 28.1017 32.9813L25.4268 28.0756Z" fill="#FFCB00"/>
<path id="Vector_3" d="M10.9532 31.5819C10.4228 31.8151 9.86939 31.9318 9.29291 31.9318C7.43279 31.9318 5.77252 30.6723 5.25753 28.8686L5.08074 28.2544L4.46583 28.2311L1.88319 32.9891C1.71408 33.2923 1.69103 33.6577 1.82169 33.9842L3.1207 37.265C3.32823 37.7859 3.86628 38.0814 4.40434 37.9803L7.84017 37.335C8.17837 37.2728 8.47046 37.0551 8.63956 36.7519L11.5681 31.3642L11.545 31.3409L10.9532 31.5819Z" fill="#FFCB00"/>
<path id="Vector_4" d="M20.7456 14.9212C20.7456 14.9212 21.3221 14.0116 20.5765 13.3197C19.6464 12.4567 17.1176 13.032 17.1176 13.032C16.9408 13.0631 16.7563 13.102 16.5565 13.1487C16.5565 13.1487 15.6802 13.5607 16.5565 10.8785C17.4327 8.19631 15.9723 7.77649 15.3574 7.77649C14.7425 7.77649 14.95 9.10592 14.95 9.10592C14.95 9.10592 13.6356 12.7677 12.3827 13.7395C12.0522 14.0971 11.8677 14.4936 11.7755 14.7735C11.5757 14.6025 11.322 14.5014 11.0453 14.5014H9.36197C8.73936 14.5014 8.23975 15.0145 8.23975 15.6365V20.1768C8.23975 20.8065 8.74705 21.3119 9.36197 21.3119H11.0453C11.2759 21.3119 11.4911 21.2419 11.6679 21.1175C11.7063 21.0786 11.9292 20.8532 11.9292 20.2234V17.4013C11.9292 17.5101 11.9446 20.8998 13.8739 21.1097C14.5657 21.1564 15.4189 21.1952 16.2721 21.1797C17.0484 21.2419 17.8785 21.2497 18.5319 21.1097C20.7609 20.6277 20.2075 19.0573 20.2075 19.0573C21.4143 18.1399 20.7302 16.997 20.7302 16.997C21.7909 15.8697 20.7456 14.9212 20.7456 14.9212Z" fill="#FFCB00"/>
</g>
</g>
</g>
</svg>
