<svg width="30" height="31" viewBox="0 0 30 31" fill="none" xmlns="http://www.w3.org/2000/svg">
<g id="medal (1)">
<g id="Group">
<g id="Group_2">
<path id="Vector" d="M15.9882 11.6453L21.4578 0.268701C21.537 0.104399 21.7027 0 21.8851 0H29.5261C29.689 0 29.8404 0.0837801 29.9274 0.221715C30.0139 0.35965 30.0237 0.532543 29.9533 0.679306L22.7016 15.7629C22.6428 15.8849 22.5349 15.9761 22.4049 16.0134C22.3623 16.0256 22.3183 16.0317 22.2743 16.0317C22.1855 16.0317 22.0975 16.0067 22.0207 15.9583L16.1618 12.2513C15.9586 12.1225 15.8841 11.8619 15.9882 11.6453Z" fill="#FF4F19"/>
</g>
<g id="Group_3">
<path id="Vector_2" d="M26.0195 0H29.5261C29.6891 0 29.8404 0.0837801 29.9274 0.221715C30.014 0.35965 30.0237 0.532543 29.9534 0.679306L22.7017 15.7629C22.6429 15.8849 22.535 15.9761 22.4049 16.0134C22.3623 16.0256 22.3184 16.0317 22.2744 16.0317C22.1855 16.0317 22.0976 16.0067 22.0207 15.9583L19.2041 14.1761L26.0195 0Z" fill="#E3001E"/>
</g>
<g id="Group_4">
<path id="Vector_3" d="M14.0116 11.6453L8.54212 0.268701C8.46296 0.104399 8.29724 0 8.11487 0H0.473874C0.310936 0 0.159551 0.0837801 0.0725711 0.221715C-0.0139937 0.35965 -0.0237108 0.532543 0.0466195 0.679306L7.29834 15.7629C7.35711 15.8849 7.46501 15.9761 7.59506 16.0134C7.63766 16.0256 7.68163 16.0317 7.72559 16.0317C7.81447 16.0317 7.90239 16.0067 7.97924 15.9583L13.8381 12.2513C14.0413 12.1225 14.1158 11.8619 14.0116 11.6453Z" fill="#FF4F19"/>
</g>
<g id="Group_5">
<path id="Vector_4" d="M3.98049 0H0.473874C0.310935 0 0.159551 0.0837801 0.0725711 0.221715C-0.0139937 0.35965 -0.0237108 0.532543 0.0466195 0.679306L7.29834 15.7629C7.35711 15.8849 7.46501 15.9761 7.59506 16.0134C7.63766 16.0256 7.68163 16.0317 7.72559 16.0317C7.81447 16.0317 7.90239 16.0067 7.97924 15.9583L10.7959 14.1761L3.98049 0Z" fill="#E3001E"/>
</g>
<g id="Group_6">
<path id="Vector_5" d="M15.0064 30.3362C20.2421 30.3362 24.4865 26.0918 24.4865 20.8561C24.4865 15.6204 20.2421 11.3761 15.0064 11.3761C9.77074 11.3761 5.52637 15.6204 5.52637 20.8561C5.52637 26.0918 9.77074 30.3362 15.0064 30.3362Z" fill="#FFCD00"/>
</g>
<g id="Group_7">
<path id="Vector_6" d="M15.0064 30.3362C17.6243 30.3362 19.9943 29.2751 21.7098 27.5596L8.30302 14.1527C6.58742 15.8683 5.52637 18.2383 5.52637 20.8562C5.52637 26.0918 9.77071 30.3362 15.0064 30.3362Z" fill="#FF9100"/>
</g>
<g id="Group_8">
<g id="Group_9">
<path id="Vector_7" d="M17.4853 25.5492C17.3298 25.5492 17.1733 25.5117 17.0289 25.4358L15.0065 24.3728L12.9841 25.4358C12.6518 25.61 12.256 25.5811 11.9533 25.361C11.6491 25.1402 11.5001 24.7731 11.5635 24.4031L11.9496 22.1515L10.3133 20.5571C10.0443 20.2946 9.94942 19.91 10.0656 19.5529C10.1818 19.1958 10.4845 18.94 10.8562 18.8858L13.117 18.5574L14.1284 16.5089C14.2941 16.1723 14.6307 15.9631 15.006 15.9629H15.0065C15.3824 15.9629 15.7189 16.1721 15.8851 16.5089L16.8961 18.5574L19.1563 18.8858C19.5285 18.94 19.8313 19.1957 19.9475 19.5529C20.0636 19.91 19.9687 20.2947 19.6998 20.5569L18.0635 22.1515L18.45 24.4031C18.5134 24.7731 18.3643 25.1402 18.0602 25.361C17.8885 25.4858 17.6876 25.5492 17.4853 25.5492ZM10.9752 19.878L12.7897 21.6465C12.9013 21.7556 12.9522 21.9125 12.9258 22.0662L12.4976 24.5633L12.7638 25.0162L12.5434 24.5966L14.7861 23.4177C14.9241 23.345 15.0889 23.345 15.2268 23.4177L17.4695 24.5966L17.9829 24.4832L17.5158 24.5633L17.0872 22.0662C17.0608 21.9125 17.1117 21.7556 17.2233 21.6466L19.0378 19.8781L19.0883 19.355L19.0203 19.8242L16.5132 19.4599C16.3587 19.4375 16.2253 19.3405 16.1564 19.2005L15.0352 16.9286C15.0352 16.929 15.007 16.9288 14.9899 16.9286C14.9829 16.9286 14.9783 16.9286 14.9783 16.9286L13.8567 19.2007C13.7877 19.3405 13.6544 19.4375 13.4998 19.4599L10.9928 19.8242L10.6442 20.2177L10.9752 19.878Z" fill="white"/>
</g>
</g>
<g id="Group_10">
<g id="Group_11">
<path id="Vector_8" d="M22.592 21.3302C22.4684 21.3302 22.3453 21.2778 22.255 21.1927C22.1651 21.1026 22.1179 20.9793 22.1179 20.8562C22.1179 20.7328 22.1651 20.6097 22.255 20.5196C22.4304 20.3442 22.7479 20.3442 22.9234 20.5196C23.0136 20.6097 23.0659 20.7328 23.0659 20.8562C23.0659 20.9793 23.0136 21.1026 22.9234 21.1927C22.8382 21.2778 22.7151 21.3302 22.592 21.3302Z" fill="white"/>
</g>
</g>
<g id="Group_12">
<g id="Group_13">
<path id="Vector_9" d="M15.0079 13.7461C14.8797 13.7461 14.7612 13.6938 14.671 13.6086C14.5812 13.5186 14.5339 13.3952 14.5339 13.2721C14.5339 13.1487 14.5812 13.0256 14.671 12.9355C14.8464 12.7601 15.1639 12.7601 15.3394 12.9355C15.4296 13.0256 15.4819 13.1487 15.4819 13.2721C15.4819 13.3952 15.4296 13.5186 15.3394 13.6086C15.2542 13.6938 15.1311 13.7461 15.0079 13.7461Z" fill="white"/>
</g>
</g>
<g id="Group_14">
<g id="Group_15">
<path id="Vector_10" d="M9.64197 15.9691C9.51885 15.9691 9.39525 15.9168 9.31005 15.8268C9.21981 15.7416 9.16797 15.6182 9.16797 15.4951C9.16797 15.3671 9.21981 15.2438 9.31005 15.1586C9.48087 14.9831 9.80301 14.9831 9.97846 15.1586C10.0683 15.2486 10.1159 15.3671 10.1159 15.4951C10.1159 15.6182 10.0682 15.7416 9.97846 15.8268C9.88828 15.9168 9.76978 15.9691 9.64197 15.9691Z" fill="white"/>
</g>
</g>
<g id="Group_16">
<g id="Group_17">
<path id="Vector_11" d="M20.3685 26.6911C20.2454 26.6911 20.1218 26.6437 20.032 26.5537C19.9468 26.4683 19.8945 26.3449 19.8945 26.2171C19.8945 26.0938 19.9468 25.9706 20.032 25.8852C20.2121 25.7051 20.525 25.7051 20.705 25.8852C20.7902 25.9706 20.8425 26.0938 20.8425 26.2171C20.8425 26.3449 20.7902 26.4634 20.705 26.5537C20.6148 26.6437 20.4917 26.6911 20.3685 26.6911Z" fill="white"/>
</g>
</g>
<g id="Group_18">
<g id="Group_19">
<path id="Vector_12" d="M20.3685 15.9691C20.2454 15.9691 20.1218 15.9168 20.032 15.8316C19.9468 15.7416 19.8945 15.6182 19.8945 15.4951C19.8945 15.3671 19.9468 15.2438 20.032 15.1586C20.2074 14.9831 20.525 14.9831 20.705 15.1586C20.7902 15.2438 20.8425 15.3671 20.8425 15.4951C20.8425 15.6182 20.7902 15.7416 20.705 15.8316C20.6148 15.9168 20.4917 15.9691 20.3685 15.9691Z" fill="white"/>
</g>
</g>
<g id="Group_20">
<g id="Group_21">
<path id="Vector_13" d="M22.0133 18.4292C21.8902 18.4292 21.7671 18.3771 21.6768 18.2869C21.5916 18.2017 21.5393 18.0783 21.5393 17.9552C21.5393 17.8272 21.5916 17.7038 21.6768 17.6186C21.8568 17.4432 22.1697 17.4432 22.3498 17.6186C22.4354 17.7038 22.4873 17.8272 22.4873 17.9552C22.4873 18.0783 22.4354 18.2017 22.3498 18.2869C22.26 18.3771 22.1364 18.4292 22.0133 18.4292Z" fill="white"/>
</g>
</g>
<g id="Group_22">
<g id="Group_23">
<path id="Vector_14" d="M12.1017 14.3243C11.9786 14.3243 11.8554 14.2722 11.7702 14.1822C11.68 14.0968 11.6277 13.9736 11.6277 13.8503C11.6277 13.7271 11.68 13.6038 11.7702 13.5137C11.9452 13.3383 12.2632 13.3383 12.4382 13.5137C12.5284 13.6038 12.5756 13.7223 12.5756 13.8503C12.5756 13.9736 12.5284 14.0967 12.4382 14.1868C12.3484 14.2722 12.2299 14.3243 12.1017 14.3243Z" fill="white"/>
</g>
</g>
<g id="Group_24">
<g id="Group_25">
<path id="Vector_15" d="M22.0133 24.2309C21.8902 24.2309 21.7671 24.1836 21.6768 24.0934C21.5916 24.0033 21.5393 23.8848 21.5393 23.7569C21.5393 23.6337 21.5916 23.5104 21.6768 23.4252C21.8522 23.2451 22.1744 23.2451 22.3498 23.4252C22.4354 23.5104 22.4873 23.6337 22.4873 23.7569C22.4873 23.8848 22.4354 24.0033 22.3498 24.0934C22.26 24.1836 22.1364 24.2309 22.0133 24.2309Z" fill="white"/>
</g>
</g>
<g id="Group_26">
<g id="Group_27">
<path id="Vector_16" d="M17.9083 14.3243C17.7852 14.3243 17.6621 14.2722 17.5718 14.1868C17.4866 14.0967 17.4343 13.9736 17.4343 13.8503C17.4343 13.7223 17.4866 13.5992 17.5718 13.5137C17.7472 13.3383 18.0648 13.3383 18.2448 13.5137C18.3304 13.6038 18.3823 13.7223 18.3823 13.8503C18.3823 13.9736 18.3304 14.0967 18.2448 14.1868C18.155 14.2722 18.0319 14.3243 17.9083 14.3243Z" fill="white"/>
</g>
</g>
<g id="Group_28">
<g id="Group_29">
<path id="Vector_17" d="M22.4401 19.8181C22.3118 19.8181 22.1887 19.7658 22.1035 19.6806C22.0133 19.5904 21.9661 19.4672 21.9661 19.3441C21.9661 19.2207 22.0133 19.0976 22.1035 19.0073C22.279 18.8321 22.5965 18.8321 22.7719 19.0073C22.8618 19.0975 22.914 19.2207 22.914 19.3441C22.914 19.4672 22.8617 19.5903 22.7719 19.6806C22.6864 19.7658 22.5632 19.8181 22.4401 19.8181Z" fill="white"/>
</g>
</g>
<g id="Group_30">
<g id="Group_31">
<path id="Vector_18" d="M13.4955 13.8977C13.3673 13.8977 13.2488 13.8456 13.1589 13.7603C13.0687 13.6702 13.0215 13.5517 13.0215 13.4237C13.0215 13.3006 13.0687 13.1772 13.1589 13.0872C13.3344 12.9117 13.6519 12.9117 13.832 13.0872C13.9172 13.1772 13.9694 13.3006 13.9694 13.4237C13.9694 13.5468 13.9171 13.6702 13.832 13.7603C13.7418 13.8456 13.6187 13.8977 13.4955 13.8977Z" fill="white"/>
</g>
</g>
<g id="Group_32">
<g id="Group_33">
<path id="Vector_19" d="M21.3309 25.5154C21.2073 25.5154 21.0842 25.4633 20.9944 25.3782C20.9088 25.2879 20.8569 25.1694 20.8569 25.0414C20.8569 24.9183 20.9088 24.7952 20.9944 24.7049C21.1698 24.5297 21.492 24.5297 21.6674 24.7049C21.7526 24.7951 21.8049 24.9183 21.8049 25.0414C21.8049 25.1694 21.7526 25.2879 21.6674 25.3782C21.5772 25.4633 21.4541 25.5154 21.3309 25.5154Z" fill="white"/>
</g>
</g>
<g id="Group_34">
<g id="Group_35">
<path id="Vector_20" d="M19.1928 15.0068C19.0696 15.0068 18.9465 14.9547 18.8562 14.8693C18.771 14.7792 18.7188 14.6561 18.7188 14.5328C18.7188 14.4048 18.7711 14.2863 18.8562 14.1962C19.0317 14.0208 19.3543 14.0208 19.5246 14.1962C19.6149 14.2816 19.6667 14.4048 19.6667 14.5328C19.6667 14.6561 19.6149 14.7792 19.5246 14.8693C19.4395 14.9547 19.3163 15.0068 19.1928 15.0068Z" fill="white"/>
</g>
</g>
<g id="Group_36">
<g id="Group_37">
<path id="Vector_21" d="M21.2931 17.0877C21.17 17.0877 21.0464 17.0402 20.9566 16.9502C20.8709 16.8649 20.8191 16.7417 20.8191 16.6137C20.8191 16.4906 20.8709 16.3672 20.9566 16.2771C21.1366 16.1017 21.4495 16.1017 21.6296 16.2771C21.7194 16.3672 21.767 16.4906 21.767 16.6137C21.767 16.7417 21.7193 16.8648 21.6296 16.9502C21.5393 17.0403 21.4208 17.0877 21.2931 17.0877Z" fill="white"/>
</g>
</g>
<g id="Group_38">
<g id="Group_39">
<path id="Vector_22" d="M10.7653 15.0401C10.637 15.0401 10.5185 14.9927 10.4287 14.9027C10.3431 14.8173 10.2913 14.6941 10.2913 14.5708C10.2913 14.4428 10.3431 14.3197 10.4287 14.2342C10.6042 14.0588 10.9263 14.0588 11.1017 14.2342C11.1869 14.3196 11.2392 14.4428 11.2392 14.5708C11.2392 14.6941 11.1869 14.8172 11.1017 14.9027C11.0116 14.9927 10.8884 15.0401 10.7653 15.0401Z" fill="white"/>
</g>
</g>
<g id="Group_40">
<g id="Group_41">
<path id="Vector_23" d="M22.4493 22.7757C22.3262 22.7757 22.2031 22.7283 22.1128 22.6383C22.0276 22.5482 21.9753 22.4297 21.9753 22.3017C21.9753 22.1786 22.0277 22.0553 22.1128 21.9652C22.2929 21.7898 22.6058 21.7898 22.7858 21.9652C22.8761 22.0553 22.9233 22.1786 22.9233 22.3017C22.9233 22.4297 22.8761 22.5482 22.7858 22.6383C22.6961 22.7283 22.5776 22.7757 22.4493 22.7757Z" fill="white"/>
</g>
</g>
<g id="Group_42">
<g id="Group_43">
<path id="Vector_24" d="M16.4535 13.8836C16.3253 13.8836 16.2068 13.8361 16.117 13.7461C16.0313 13.656 15.9795 13.5375 15.9795 13.4096C15.9795 13.2862 16.0313 13.1631 16.117 13.0776C16.2924 12.8976 16.6099 12.8976 16.79 13.0776C16.8752 13.163 16.9274 13.2862 16.9274 13.4096C16.9274 13.5375 16.8751 13.6607 16.79 13.7461C16.6998 13.8361 16.5766 13.8836 16.4535 13.8836Z" fill="white"/>
</g>
</g>
<g id="Group_44">
<path id="Vector_25" d="M17.4851 25.5492C17.6874 25.5492 17.8883 25.4858 18.06 25.361C18.3642 25.1402 18.5132 24.7731 18.4498 24.4031L18.4283 24.2782L17.2674 23.1173L17.5156 24.5632L17.9827 24.4831L17.4694 24.5965L15.2266 23.4175C15.0887 23.3448 14.9239 23.3448 14.786 23.4175L12.5432 24.5965L12.7636 25.0161L12.4974 24.5631L12.9256 22.066C12.952 21.9123 12.9011 21.7554 12.7895 21.6464L10.975 19.8779L10.644 20.2174L10.9926 19.8239L13.4996 19.4597C13.5297 19.4553 13.5581 19.4459 13.5863 19.436L12.7595 18.6091L10.856 18.8857C10.4843 18.9398 10.1816 19.1955 10.0654 19.5527C9.94918 19.9099 10.0441 20.2945 10.313 20.5569L11.9494 22.1514L11.5633 24.4029C11.4999 24.773 11.6489 25.14 11.953 25.3608C12.2557 25.5809 12.6515 25.6099 12.9839 25.4356L15.0063 24.3726L17.0287 25.4356C17.1732 25.5117 17.3296 25.5492 17.4851 25.5492Z" fill="#FFCD00"/>
</g>
<g id="Group_45">
<g id="Group_46">
<path id="Vector_26" d="M7.42371 21.3302C7.30011 21.3302 7.17699 21.2778 7.08669 21.1927C7.00149 21.1026 6.94971 20.9793 6.94971 20.8562C6.94971 20.7328 7.00155 20.6097 7.08669 20.5196C7.26213 20.3442 7.57966 20.3442 7.7551 20.5196C7.84534 20.6097 7.89765 20.7328 7.89765 20.8562C7.89765 20.9793 7.84534 21.1026 7.7551 21.1927C7.66996 21.2778 7.54683 21.3302 7.42371 21.3302Z" fill="#FFCD00"/>
</g>
</g>
<g id="Group_47">
<g id="Group_48">
<path id="Vector_27" d="M15.0079 28.9142C14.8843 28.9142 14.7612 28.8619 14.671 28.7767C14.5812 28.6867 14.5339 28.5633 14.5339 28.4402C14.5339 28.3168 14.5812 28.1937 14.671 28.1037C14.8515 27.9282 15.1639 27.9282 15.3394 28.1037C15.4296 28.1937 15.4819 28.3168 15.4819 28.4402C15.4819 28.5633 15.4296 28.6867 15.3394 28.7767C15.2542 28.8619 15.1311 28.9142 15.0079 28.9142Z" fill="#FFCD00"/>
</g>
</g>
<g id="Group_49">
<g id="Group_50">
<path id="Vector_28" d="M9.64197 26.6911C9.51885 26.6911 9.39525 26.6437 9.31005 26.5537C9.21981 26.4634 9.16797 26.3403 9.16797 26.2171C9.16797 26.0938 9.21981 25.9707 9.31005 25.8852C9.48549 25.7098 9.80301 25.7051 9.97846 25.8852C10.0683 25.9706 10.1159 26.0938 10.1159 26.2171C10.1159 26.3403 10.0682 26.4634 9.97846 26.5537C9.89337 26.6437 9.76978 26.6911 9.64197 26.6911Z" fill="#FFCD00"/>
</g>
</g>
<g id="Group_51">
<g id="Group_52">
<path id="Vector_29" d="M8.00184 24.2309C7.87362 24.2309 7.7505 24.1836 7.66529 24.0934C7.57506 24.0033 7.52783 23.8802 7.52783 23.7569C7.52783 23.6337 7.57506 23.5104 7.66529 23.4252C7.84073 23.2451 8.15826 23.2451 8.3337 23.4252C8.42352 23.5104 8.47578 23.6337 8.47578 23.7569C8.47578 23.8802 8.42346 24.0033 8.3337 24.0934C8.24808 24.1836 8.12496 24.2309 8.00184 24.2309Z" fill="#FFCD00"/>
</g>
</g>
<g id="Group_53">
<g id="Group_54">
<path id="Vector_30" d="M17.9083 28.3358C17.7852 28.3358 17.6621 28.2883 17.5718 28.1983C17.4866 28.1131 17.4343 27.9898 17.4343 27.8618C17.4343 27.7387 17.4866 27.6153 17.5718 27.5253C17.7518 27.3498 18.0648 27.3498 18.2448 27.5253C18.3304 27.6153 18.3823 27.7387 18.3823 27.8618C18.3823 27.9852 18.3304 28.1083 18.2448 28.1983C18.155 28.2883 18.0319 28.3358 17.9083 28.3358Z" fill="#FFCD00"/>
</g>
</g>
<g id="Group_55">
<g id="Group_56">
<path id="Vector_31" d="M8.00184 18.4292C7.87362 18.4292 7.7505 18.3771 7.66529 18.2869C7.57506 18.2017 7.52783 18.0783 7.52783 17.9552C7.52783 17.8272 7.57506 17.7038 7.66529 17.6186C7.84073 17.4432 8.15826 17.4432 8.3337 17.6186C8.42352 17.7087 8.47578 17.8272 8.47578 17.9552C8.47578 18.0783 8.42346 18.2017 8.3337 18.2869C8.24808 18.3771 8.12496 18.4292 8.00184 18.4292Z" fill="#FFCD00"/>
</g>
</g>
<g id="Group_57">
<g id="Group_58">
<path id="Vector_32" d="M12.1017 28.3358C11.9786 28.3358 11.8554 28.2883 11.7702 28.1983C11.68 28.1083 11.6277 27.9898 11.6277 27.8618C11.6277 27.7387 11.68 27.6153 11.7702 27.5299C11.9452 27.3498 12.2632 27.3498 12.4382 27.5299C12.5284 27.6153 12.5756 27.7386 12.5756 27.8618C12.5756 27.9898 12.5284 28.1083 12.4382 28.1983C12.353 28.2883 12.2299 28.3358 12.1017 28.3358Z" fill="#FFCD00"/>
</g>
</g>
<g id="Group_59">
<g id="Group_60">
<path id="Vector_33" d="M7.57508 22.8422C7.45196 22.8422 7.32883 22.7898 7.23854 22.7047C7.15333 22.6146 7.10107 22.4913 7.10107 22.3681C7.10107 22.2448 7.15339 22.1217 7.23854 22.0316C7.4186 21.8562 7.7315 21.8562 7.91156 22.0316C7.99718 22.1217 8.04902 22.2448 8.04902 22.3681C8.04902 22.4913 7.99718 22.6146 7.91156 22.7047C7.8218 22.7899 7.6982 22.8422 7.57508 22.8422Z" fill="#FFCD00"/>
</g>
</g>
<g id="Group_61">
<g id="Group_62">
<path id="Vector_34" d="M16.5197 28.7623C16.3919 28.7623 16.2683 28.7103 16.1831 28.6249C16.0929 28.5348 16.0457 28.4117 16.0457 28.2883C16.0457 28.1652 16.0929 28.0419 16.1831 27.9518C16.3586 27.7764 16.6761 27.7764 16.8515 27.9518C16.9413 28.0419 16.9936 28.1652 16.9936 28.2883C16.9936 28.4117 16.9413 28.5348 16.8515 28.6249C16.7664 28.7103 16.6428 28.7623 16.5197 28.7623Z" fill="#FFCD00"/>
</g>
</g>
<g id="Group_63">
<g id="Group_64">
<path id="Vector_35" d="M8.68421 17.1446C8.55646 17.1446 8.43334 17.0926 8.34767 17.0072C8.25784 16.9171 8.21021 16.7938 8.21021 16.6706C8.21021 16.5427 8.2579 16.4242 8.34767 16.3341C8.52311 16.1587 8.84063 16.1587 9.01607 16.3341C9.10631 16.4242 9.15815 16.5473 9.15815 16.6706C9.15815 16.7938 9.10631 16.9171 9.01607 17.0072C8.93093 17.0926 8.8078 17.1446 8.68421 17.1446Z" fill="#FFCD00"/>
</g>
</g>
<g id="Group_65">
<g id="Group_66">
<path id="Vector_36" d="M10.8224 27.6533C10.6942 27.6533 10.5711 27.6012 10.4859 27.5158C10.3956 27.4258 10.3484 27.3073 10.3484 27.1793C10.3484 27.0559 10.3956 26.9328 10.4859 26.8474C10.6608 26.6673 10.9788 26.6673 11.1538 26.8474C11.244 26.9327 11.2963 27.0559 11.2963 27.1793C11.2963 27.3073 11.244 27.4258 11.1538 27.5158C11.0687 27.6012 10.9455 27.6533 10.8224 27.6533Z" fill="#FFCD00"/>
</g>
</g>
<g id="Group_67">
<g id="Group_68">
<path id="Vector_37" d="M8.71766 25.5723C8.59453 25.5723 8.47141 25.5203 8.38111 25.4303C8.29591 25.3449 8.24365 25.2217 8.24365 25.0983C8.24365 24.9704 8.29597 24.8519 8.38111 24.7618C8.56117 24.5864 8.8787 24.5864 9.05414 24.7618C9.14438 24.8519 9.1916 24.9704 9.1916 25.0983C9.1916 25.2217 9.14438 25.3448 9.05414 25.4303C8.96437 25.5203 8.84587 25.5723 8.71766 25.5723Z" fill="#FFCD00"/>
</g>
</g>
<g id="Group_69">
<g id="Group_70">
<path id="Vector_38" d="M19.2499 27.6153C19.1221 27.6153 18.999 27.5678 18.9133 27.4778C18.8235 27.3926 18.7759 27.2693 18.7759 27.1413C18.7759 27.0182 18.8236 26.8948 18.9133 26.8096C19.0842 26.6342 19.4063 26.6293 19.5817 26.8096C19.672 26.8948 19.7238 27.0182 19.7238 27.1413C19.7238 27.2693 19.672 27.3926 19.5817 27.4778C19.4966 27.5678 19.3735 27.6153 19.2499 27.6153Z" fill="#FFCD00"/>
</g>
</g>
<g id="Group_71">
<g id="Group_72">
<path id="Vector_39" d="M7.56067 19.8843C7.43755 19.8843 7.31443 19.8322 7.22413 19.7422C7.13893 19.6569 7.08667 19.5337 7.08667 19.4103C7.08667 19.2823 7.13899 19.1638 7.22413 19.0738C7.39957 18.8983 7.72219 18.8983 7.89763 19.0738C7.98745 19.1638 8.03468 19.2823 8.03468 19.4103C8.03468 19.5337 7.98745 19.6568 7.89763 19.7422C7.80739 19.8322 7.68427 19.8843 7.56067 19.8843Z" fill="#FFCD00"/>
</g>
</g>
<g id="Group_73">
<g id="Group_74">
<path id="Vector_40" d="M13.557 28.7767C13.4339 28.7767 13.3108 28.7244 13.2251 28.6344C13.1353 28.5492 13.0876 28.4258 13.0876 28.3027C13.0876 28.1747 13.1353 28.0514 13.2251 27.9662C13.4005 27.7907 13.7181 27.7907 13.8935 27.9662C13.9837 28.0514 14.031 28.1747 14.031 28.3027C14.031 28.4258 13.9837 28.5492 13.8935 28.6344C13.8084 28.7244 13.6852 28.7767 13.557 28.7767Z" fill="#FFCD00"/>
</g>
</g>
<g id="Group_75">
<path id="Vector_41" d="M9.30964 15.1593C9.21975 15.2445 9.16797 15.3674 9.16797 15.4951C9.16797 15.6182 9.21981 15.7416 9.31005 15.8268C9.39525 15.9168 9.51879 15.9691 9.64197 15.9691C9.76936 15.9691 9.88751 15.917 9.97768 15.8273L9.30964 15.1593Z" fill="#FFCD00"/>
</g>
<g id="Group_76">
<path id="Vector_42" d="M20.3685 26.6911C20.4914 26.6911 20.6141 26.6438 20.7044 26.5541L20.0341 25.8839C20.0335 25.8844 20.0326 25.8846 20.032 25.8852C19.9468 25.9706 19.8945 26.0938 19.8945 26.2171C19.8945 26.3449 19.9468 26.4682 20.032 26.5537C20.1218 26.6437 20.2454 26.6911 20.3685 26.6911Z" fill="#FFCD00"/>
</g>
</g>
</g>
</svg>
