<svg width="30" height="36" viewBox="0 0 30 36" fill="none" xmlns="http://www.w3.org/2000/svg">
<g id="premium-badge">
<g id="Group">
<g id="Layer 5 21">
<g id="Group_2">
<path id="Vector" d="M29.8631 29.8322C29.8631 29.8322 25.9662 23.1346 25.2672 21.9334C26.0625 21.6908 26.9097 21.4765 27.2617 20.8687C27.8484 19.8559 26.8041 18.1945 27.0783 17.109C27.3608 15.9918 29.0283 15.025 29.0283 13.8894C29.0283 12.7829 27.3043 11.4903 27.0217 10.3797C26.7456 9.2943 27.7867 7.6311 27.1982 6.61956C26.6096 5.60793 24.6493 5.69104 23.8423 4.91453C23.012 4.11543 23.0145 2.16028 22.013 1.62477C21.0075 1.08726 19.3732 2.17357 18.2567 1.91624C17.153 1.66186 16.1669 0 15.0139 0C13.844 0 11.983 1.88512 11.6912 1.95296C10.5753 2.21237 8.93891 1.12872 7.93439 1.66851C6.93386 2.20583 6.94002 4.16116 6.11123 4.96159C5.30558 5.73953 3.34512 5.66002 2.75837 6.67279C2.17171 7.68538 3.21599 9.34639 2.94187 10.4325C2.667 11.5214 0.941466 12.6247 0.941466 13.8839C0.941466 15.0197 2.6131 15.9834 2.89728 17.1001C3.17348 18.1854 2.13233 19.8484 2.72089 20.8604C3.04131 21.4112 3.7683 21.6373 4.49434 21.8546C4.57907 21.88 4.73932 21.9748 4.63078 22.1329C4.13407 22.9903 0.1362 29.89 0.1362 29.89C-0.181846 30.4388 0.0764236 30.9093 0.709953 30.9359L3.81099 31.0652C4.44452 31.0919 5.23926 31.5523 5.57742 32.0886L7.23217 34.7144C7.57033 35.2508 8.10689 35.2407 8.42484 34.692C8.42484 34.692 13.0548 26.6986 13.0567 26.6963C13.1496 26.5877 13.243 26.61 13.2877 26.648C13.7942 27.0793 14.5004 27.5096 15.0899 27.5096C15.6679 27.5096 16.2031 27.1046 16.7325 26.6528C16.7756 26.6161 16.8805 26.5409 16.9571 26.6971C16.9584 26.6995 21.5832 34.6492 21.5832 34.6492C21.902 35.1973 22.4387 35.2066 22.7758 34.6695L24.4259 32.0406C24.7631 31.5039 25.557 31.0417 26.1905 31.0141L29.2913 30.879C29.9245 30.8512 30.1819 30.3801 29.8631 29.8322ZM20.1388 22.6419C16.7102 24.6366 12.5946 24.4228 9.45118 22.4401C4.84512 19.4897 3.32956 13.3865 6.09851 8.60735C8.89906 3.77309 15.0553 2.0673 19.9331 4.72391C19.9587 4.73786 19.9841 4.75228 20.0095 4.76651C20.0457 4.78653 20.0817 4.80684 20.1177 4.82733C21.6225 5.69493 22.9274 6.95412 23.8618 8.56019C26.7176 13.469 25.0476 19.7861 20.1388 22.6419Z" fill="#C4C4C4"/>
<path id="Vector_2" d="M19.3548 6.27203C19.3405 6.26378 19.3261 6.25609 19.3119 6.24793C16.7062 4.73987 13.3851 4.62962 10.6018 6.24898C6.47135 8.65197 5.06586 13.9672 7.46885 18.0975C8.2021 19.3579 9.2069 20.3641 10.3662 21.0861C10.4648 21.1485 10.5645 21.2099 10.6664 21.269C14.8013 23.6644 20.1136 22.2494 22.509 18.1147C24.9043 13.9798 23.4896 8.66753 19.3548 6.27203ZM20.3892 13.0315L18.9414 14.4427C18.4929 14.8798 18.2127 15.7424 18.3186 16.3596L18.6604 18.3523C18.7663 18.9695 18.3995 19.236 17.8452 18.9446L16.0556 18.0038C15.5013 17.7124 14.5943 17.7124 14.04 18.0038L12.2505 18.9446C11.6962 19.236 11.3293 18.9695 11.4352 18.3523L11.777 16.3596C11.8829 15.7424 11.6026 14.8798 11.1542 14.4427L9.70646 13.0315C9.25795 12.5945 9.39819 12.1632 10.0179 12.073L12.0186 11.7823C12.6382 11.6923 13.372 11.1591 13.6492 10.5976L14.5439 8.78471C14.8211 8.2232 15.2746 8.2232 15.5517 8.78471L16.4465 10.5976C16.7237 11.1591 17.4574 11.6923 18.0772 11.7823L20.0779 12.073C20.6974 12.1632 20.8376 12.5945 20.3892 13.0315Z" fill="#C4C4C4"/>
</g>
</g>
</g>
</g>
</svg>
