<svg width="26" height="30" viewBox="0 0 26 30" fill="none" xmlns="http://www.w3.org/2000/svg">
<g id="medal">
<path id="Vector" d="M6.71738 12.9698L0 25.3131L6.09998 24.7635L9.05236 29.9991L15.7697 17.6558L6.71738 12.9698Z" fill="#E95454"/>
<g id="Group">
<path id="Vector_2" d="M7.48637 26.4049C7.67486 26.01 7.47772 25.5382 7.08343 25.3337L6.69683 25.133C6.31023 24.9182 6.16309 24.4408 6.3737 24.0544C6.5872 23.6614 7.0892 23.5113 7.49214 23.7195L8.58462 24.2851C8.92217 24.4596 9.34531 24.333 9.51938 24.0019L9.54631 23.9512C9.74634 23.6389 9.62805 23.2262 9.29531 23.0545L6.0275 21.3634C5.62936 21.1571 5.43413 20.6872 5.61974 20.2914C5.82458 19.8702 6.34197 19.7042 6.75838 19.92L9.78961 21.4891C10.1272 21.6636 10.5503 21.537 10.7292 21.2077L10.7465 21.1646L10.7513 21.1552C10.9446 20.8101 10.809 20.3767 10.4522 20.192L8.75195 19.3122C8.35382 19.1058 8.15859 18.6359 8.34708 18.2354C8.55 17.819 9.06931 17.6483 9.48572 17.864L11.3639 18.8366C11.7149 19.0186 12.1342 18.8666 12.316 18.5215C12.3189 18.5168 12.3189 18.5168 12.3208 18.5121C12.3237 18.5074 12.3237 18.5074 12.3256 18.5027C12.517 18.1623 12.4112 17.7383 12.0592 17.5573L10.0329 16.5087C9.63959 16.3051 9.44437 15.8352 9.62997 15.4394C9.83481 15.0183 10.3522 14.8523 10.7686 15.068L15.7675 17.6558L9.05008 29.9991L7.19883 26.7172C7.31808 26.6384 7.42194 26.5409 7.48637 26.4049Z" fill="#ED6362"/>
<path id="Vector_3" d="M19.2826 12.9698L26 25.3131L19.9 24.7635L16.9476 29.999L10.2302 17.6558L19.2826 12.9698Z" fill="#ED6362"/>
</g>
<path id="Vector_4" d="M18.5132 26.4049C18.3248 26.01 18.5219 25.5382 18.9162 25.3337L19.3028 25.133C19.6894 24.9182 19.8365 24.4408 19.6259 24.0544C19.4124 23.6614 18.9104 23.5113 18.5075 23.7196L17.415 24.2851C17.0775 24.4596 16.6543 24.333 16.4802 24.0019L16.4533 23.9512C16.2533 23.6389 16.3716 23.2262 16.7043 23.0546L19.9731 21.3625C20.3712 21.1562 20.5665 20.6863 20.3808 20.2904C20.176 19.8693 19.6586 19.7033 19.2422 19.919L16.211 21.4882C15.8734 21.6627 15.4503 21.536 15.2714 21.2068L15.2541 21.1637L15.2493 21.1543C15.056 20.8091 15.1916 20.3758 15.5484 20.191L17.2486 19.3112C17.6468 19.1049 17.842 18.635 17.6535 18.2345C17.4506 17.818 16.9313 17.6473 16.5149 17.8631L14.6348 18.8376C14.2837 19.0195 13.8645 18.8676 13.6827 18.5224C13.6798 18.5177 13.6798 18.5177 13.6779 18.5131C13.675 18.5084 13.675 18.5084 13.6731 18.5037C13.4817 18.1632 13.5875 17.7392 13.9395 17.5582L15.9657 16.5096C16.3591 16.3061 16.5543 15.8362 16.3687 15.4404C16.1638 15.0192 15.6465 14.8532 15.2301 15.0689L10.2312 17.6567L16.9486 30L18.7998 26.7181C18.6815 26.6384 18.5777 26.5409 18.5132 26.4049Z" fill="#E95454"/>
<path id="Vector_5" d="M13 21.8934C19.1987 21.8934 24.2238 16.9924 24.2238 10.9467C24.2238 4.901 19.1987 0 13 0C6.80121 0 1.77612 4.901 1.77612 10.9467C1.77612 16.9924 6.80121 21.8934 13 21.8934Z" fill="#FFCC5B"/>
<path id="Vector_6" d="M14.5226 9.69081H7.40995C6.85698 9.69081 6.40306 9.2481 6.40306 8.70879L6.41075 8.64126V8.62625C6.40306 8.05692 6.8791 7.5917 7.4638 7.5917H12.3934C13.0464 7.5917 13.6234 7.11992 13.6619 6.48212C13.6926 5.81525 13.1474 5.25248 12.4626 5.25248H7.24069C6.66464 5.25248 6.2338 4.7807 6.2415 4.21793C6.2415 4.21043 6.2415 4.21043 6.2415 4.20293C6.2415 4.19542 6.2415 4.19542 6.2415 4.18792C6.2338 3.62609 6.66368 3.15337 7.24069 3.15337H12.705C13.3503 3.15337 13.9273 2.68159 13.9658 2.05129C13.9965 1.37692 13.4513 0.821655 12.7665 0.821655H8.76496C4.68453 2.46211 1.80908 6.37519 1.80908 10.9467C1.80908 15.5182 4.68453 19.4304 8.76592 21.069H13.8465C14.4918 21.069 15.0688 20.5972 15.1073 19.9669C15.1381 19.2925 14.5928 18.7382 13.9081 18.7382L8.12833 18.7372C7.44649 18.7372 6.89737 18.181 6.93391 17.5076C6.96757 16.8773 7.54843 16.4036 8.19564 16.4036H10.4364C11.0807 16.3858 11.601 15.8709 11.601 15.2378C11.601 14.5934 11.0634 14.0682 10.4018 14.0682H7.00508C6.45211 14.0682 5.99819 13.6264 6.00588 13.0862V13.0036C5.96742 12.4718 6.40595 12.0216 6.95122 12.0216H14.4533C15.1063 12.0216 15.6833 11.5498 15.7218 10.9195C15.7526 10.2461 15.2063 9.69081 14.5226 9.69081Z" fill="#FDBC4B"/>
<path id="Vector_7" d="M13.0003 18.7597C8.58235 18.7597 4.98853 15.2537 4.98853 10.9458C4.98853 6.6378 8.58235 3.13272 13.0003 3.13272C17.4183 3.13272 21.0122 6.63874 21.0122 10.9467C21.0122 15.2547 17.4183 18.7597 13.0003 18.7597Z" fill="#FFDB70"/>
<path id="Vector_8" opacity="0.2" d="M21.0118 10.9467C21.0118 6.78973 17.6632 3.3897 13.4597 3.15521H12.7134C12.221 3.15521 11.7815 3.51538 11.7517 3.99561C11.7286 4.5096 12.1441 4.93355 12.6663 4.93355L17.0747 4.93448C17.5949 4.93448 18.0133 5.35843 17.9854 5.87242C17.9594 6.35359 17.517 6.71469 17.0227 6.71469H15.3138C14.8224 6.72876 14.4252 7.12082 14.4252 7.60386C14.4252 8.09534 14.8358 8.49584 15.3398 8.49584H17.9306C18.3527 8.49584 18.698 8.8335 18.6922 9.24432V9.30622C18.7211 9.71235 18.3874 10.0547 17.9709 10.0547H12.2499C11.7517 10.0547 11.3122 10.4149 11.2824 10.8951C11.2593 11.4091 11.6748 11.833 12.197 11.833H17.6209C18.0431 11.833 18.3883 12.1707 18.3883 12.5815L18.3825 12.6331V12.6443C18.3883 13.0786 18.0248 13.4332 17.5795 13.4332H13.8193C13.3212 13.4332 12.8817 13.7933 12.8519 14.2792C12.8288 14.7875 13.2443 15.2171 13.7664 15.2171H17.7488C18.1883 15.2171 18.5162 15.5773 18.5104 16.0059C18.5104 16.0116 18.5104 16.0116 18.5104 16.0172C18.5104 16.0228 18.5104 16.0228 18.5104 16.0284C18.5162 16.4571 18.1883 16.8172 17.7488 16.8172H13.5818C13.0894 16.8172 12.6499 17.1774 12.6201 17.6576C12.597 18.1726 13.0125 18.5956 13.5347 18.5956H14.6339C18.272 17.8565 21.0118 14.7078 21.0118 10.9467Z" fill="white"/>
<path id="Vector_9" d="M18.5931 9.2162H14.6964L13.4914 5.60138C13.3365 5.1371 12.6624 5.1371 12.5076 5.60138L11.3035 9.2162H7.40677C6.90573 9.2162 6.69704 9.84181 7.10287 10.1288L10.2553 12.363L9.05125 15.9778C8.89642 16.4421 9.44169 16.8285 9.84753 16.5415L12.9999 14.3073L16.1523 16.5415C16.5582 16.8285 17.1035 16.4421 16.9486 15.9778L15.7446 12.363L18.897 10.1288C19.3019 9.84181 19.0941 9.2162 18.5931 9.2162Z" fill="#EC9922"/>
</g>
</svg>
